<svg id="Capa_4" data-name="Capa 4" xmlns="http://www.w3.org/2000/svg" xmlns:xlink="http://www.w3.org/1999/xlink" viewBox="0 0 1644.84 586"><defs><style>.cls-1{fill:url(#linear-gradient);}.cls-2{fill:#fff;}.cls-3{fill:url(#linear-gradient-2);}.cls-4{fill:url(#linear-gradient-3);}</style><linearGradient id="linear-gradient" x1="331.45" y1="676.54" x2="126.68" y2="41.75" gradientUnits="userSpaceOnUse"><stop offset="0" stop-color="#61bacd"/><stop offset="1" stop-color="#4cdfaa"/></linearGradient><linearGradient id="linear-gradient-2" x1="1163.38" y1="257.62" x2="1409.5" y2="257.62" xlink:href="#linear-gradient"/><linearGradient id="linear-gradient-3" x1="1280.46" y1="280.71" x2="1642.84" y2="280.71" xlink:href="#linear-gradient"/></defs><title>RehabilitacionFisicaLogo</title><path class="cls-1" d="M-2-26V560H481L433.67,78S416.38-26,271.2-26Z" transform="translate(2 26)"/><path class="cls-2" d="M172.15,68.24s-9.72,7-14.7,22.26c0,0-46.43,34.91-26.86,99s82.87,61,82.87,61,14.78-33.19,1.73-64.84a46.78,46.78,0,0,0,1.91,49.49S182.77,208.86,205,168.77a297.8,297.8,0,0,0-20.72-23C173.56,135.2,149.42,102.54,172.15,68.24Z" transform="translate(2 26)"/><path class="cls-2" d="M171.13,81.16s70.09-40.93,120.73,26.09-12.95,144.6-63,143.26c0,0-9.73,12.35-20.85,17.25,0,0,44.73-50,23-94.26S167.17,123.24,171.13,81.16Zm47.42,50.58a15.25,15.25,0,1,0-15.25-15.25A15.25,15.25,0,0,0,218.55,131.74Zm24.84-56.59S265,98.3,247.87,119.78,220.57,150,220.57,150s7.09,10.1,9.26,14.83c0,0,36.58-34.4,36.58-55.12S243.39,75.15,243.39,75.15Z" transform="translate(2 26)"/><path class="cls-2" d="M96.71,307.08a43.8,43.8,0,0,1,8-.67c4.47,0,7.35.81,9.36,2.63a8.09,8.09,0,0,1,2.55,6.15,8.51,8.51,0,0,1-6.1,8.26v.14c2.5.87,4,3.17,4.75,6.53,1.06,4.51,1.83,7.63,2.5,8.88h-4.32c-.53-.91-1.25-3.7-2.16-7.73-1-4.46-2.69-6.14-6.48-6.29h-3.94v14H96.71Zm4.18,14.73h4.27c4.47,0,7.3-2.44,7.3-6.14,0-4.18-3-6-7.44-6.05a16.65,16.65,0,0,0-4.13.39Z" transform="translate(2 26)"/><path class="cls-2" d="M124.94,328.15c.09,5.71,3.74,8.07,8,8.07a15.3,15.3,0,0,0,6.43-1.2l.72,3a18.85,18.85,0,0,1-7.73,1.44c-7.15,0-11.42-4.7-11.42-11.71s4.12-12.53,10.89-12.53c7.59,0,9.6,6.67,9.6,10.94a15.62,15.62,0,0,1-.14,2Zm12.38-3c.05-2.69-1.1-6.87-5.85-6.87-4.28,0-6.15,3.94-6.48,6.87Z" transform="translate(2 26)"/><path class="cls-2" d="M146.63,304.92h4.23v14.49H151a7.87,7.87,0,0,1,3-3,8.68,8.68,0,0,1,4.32-1.2c3.12,0,8.11,1.92,8.11,9.93V339h-4.22V325.66c0-3.75-1.39-6.92-5.38-6.92a6,6,0,0,0-5.66,4.23,5.08,5.08,0,0,0-.29,2v14h-4.23Z" transform="translate(2 26)"/><path class="cls-2" d="M186.14,339l-.34-2.93h-.14a8.65,8.65,0,0,1-7.11,3.46c-4.7,0-7.1-3.31-7.1-6.67,0-5.62,5-8.69,14-8.65v-.48c0-1.92-.53-5.37-5.28-5.37a11.54,11.54,0,0,0-6,1.73l-1-2.79a14.39,14.39,0,0,1,7.63-2.06c7.11,0,8.84,4.85,8.84,9.5v8.69A32.5,32.5,0,0,0,190,339Zm-.63-11.86c-4.6-.09-9.84.72-9.84,5.24a3.74,3.74,0,0,0,4,4,5.77,5.77,0,0,0,5.61-3.89,4.21,4.21,0,0,0,.24-1.34Z" transform="translate(2 26)"/><path class="cls-2" d="M196.22,339c.09-1.58.19-3.94.19-6V304.92h4.18v14.59h.09a8.66,8.66,0,0,1,7.92-4.27c5.76,0,9.84,4.8,9.8,11.85,0,8.31-5.24,12.44-10.42,12.44a8.29,8.29,0,0,1-7.78-4.37h-.14l-.19,3.84Zm4.37-9.31a7.62,7.62,0,0,0,.19,1.53,6.51,6.51,0,0,0,6.33,4.95c4.42,0,7.06-3.6,7.06-8.93,0-4.66-2.4-8.64-6.91-8.64a6.73,6.73,0,0,0-6.43,5.18,8.1,8.1,0,0,0-.24,1.73Z" transform="translate(2 26)"/><path class="cls-2" d="M228.42,309.24a2.49,2.49,0,0,1-2.68,2.59,2.51,2.51,0,0,1-2.55-2.59,2.58,2.58,0,0,1,2.64-2.64A2.5,2.5,0,0,1,228.42,309.24ZM223.72,339V315.77h4.22V339Z" transform="translate(2 26)"/><path class="cls-2" d="M235,304.92h4.23V339H235Z" transform="translate(2 26)"/><path class="cls-2" d="M251,309.24a2.49,2.49,0,0,1-2.68,2.59,2.51,2.51,0,0,1-2.55-2.59,2.58,2.58,0,0,1,2.64-2.64A2.5,2.5,0,0,1,251,309.24ZM246.28,339V315.77h4.22V339Z" transform="translate(2 26)"/><path class="cls-2" d="M262.6,309.09v6.68h6V319h-6v12.53c0,2.88.82,4.51,3.17,4.51a9.71,9.71,0,0,0,2.45-.28l.19,3.16a10.26,10.26,0,0,1-3.75.58,5.84,5.84,0,0,1-4.56-1.78c-1.2-1.24-1.63-3.31-1.63-6V319h-3.6v-3.21h3.6V310.2Z" transform="translate(2 26)"/><path class="cls-2" d="M286.26,339l-.33-2.93h-.15a8.63,8.63,0,0,1-7.1,3.46c-4.7,0-7.1-3.31-7.1-6.67,0-5.62,5-8.69,14-8.65v-.48c0-1.92-.52-5.37-5.28-5.37a11.57,11.57,0,0,0-6.05,1.73l-.95-2.79a14.39,14.39,0,0,1,7.63-2.06c7.1,0,8.83,4.85,8.83,9.5v8.69a32.43,32.43,0,0,0,.39,5.57Zm-.62-11.86c-4.61-.09-9.84.72-9.84,5.24a3.74,3.74,0,0,0,4,4,5.78,5.78,0,0,0,5.62-3.89,4.51,4.51,0,0,0,.24-1.34Z" transform="translate(2 26)"/><path class="cls-2" d="M313.1,338.14a15.73,15.73,0,0,1-6.68,1.34c-7,0-11.56-4.75-11.56-11.86s4.89-12.33,12.48-12.33a14,14,0,0,1,5.85,1.2l-1,3.26a9.75,9.75,0,0,0-4.89-1.1c-5.33,0-8.21,3.93-8.21,8.78,0,5.38,3.45,8.69,8.06,8.69a12,12,0,0,0,5.19-1.15Z" transform="translate(2 26)"/><path class="cls-2" d="M322.74,309.24a2.62,2.62,0,0,1-5.23,0,2.58,2.58,0,0,1,2.64-2.64A2.5,2.5,0,0,1,322.74,309.24ZM318,339V315.77h4.22V339Z" transform="translate(2 26)"/><path class="cls-2" d="M350.3,327.19c0,8.59-6,12.34-11.57,12.34-6.29,0-11.14-4.61-11.14-11.95,0-7.78,5.09-12.34,11.52-12.34C345.78,315.24,350.3,320.09,350.3,327.19Zm-18.44.24c0,5.09,2.93,8.93,7.06,8.93s7.06-3.79,7.06-9c0-3.93-2-8.92-7-8.92S331.86,323,331.86,327.43Zm13.4-21.7-5.86,6.87h-3l4.22-6.87Z" transform="translate(2 26)"/><path class="cls-2" d="M355.62,322.05c0-2.4-.05-4.36-.19-6.28h3.74l.24,3.84h.1a8.54,8.54,0,0,1,7.68-4.37c3.22,0,8.21,1.92,8.21,9.89V339h-4.22V325.61c0-3.75-1.4-6.87-5.38-6.87a6,6,0,0,0-5.67,4.32,6.16,6.16,0,0,0-.28,2v14h-4.23Z" transform="translate(2 26)"/><path class="cls-2" d="M208,386.42l-3.36,10.18h-4.32l11-32.35h5l11,32.35h-4.47l-3.45-10.18Zm10.61-3.26-3.17-9.31c-.72-2.12-1.2-4-1.68-5.91h-.09c-.48,1.92-1,3.89-1.63,5.86l-3.17,9.36Z" transform="translate(2 26)"/><path class="cls-2" d="M231.81,381c0-3-.1-5.38-.19-7.58h3.79l.19,4h.1a9.13,9.13,0,0,1,8.25-4.51c5.62,0,9.84,4.75,9.84,11.81,0,8.35-5.08,12.48-10.56,12.48a8.15,8.15,0,0,1-7.15-3.65H236V406.1h-4.18Zm4.18,6.19a9.16,9.16,0,0,0,.19,1.73,6.52,6.52,0,0,0,6.33,4.95c4.47,0,7.06-3.65,7.06-9,0-4.66-2.45-8.64-6.91-8.64a6.75,6.75,0,0,0-6.39,5.23,7,7,0,0,0-.28,1.73Z" transform="translate(2 26)"/><path class="cls-2" d="M259.12,381c0-3-.1-5.38-.19-7.58h3.79l.19,4h.1a9.14,9.14,0,0,1,8.26-4.51c5.61,0,9.84,4.75,9.84,11.81,0,8.35-5.09,12.48-10.56,12.48a8.17,8.17,0,0,1-7.16-3.65h-.09V406.1h-4.18Zm4.18,6.19a9.16,9.16,0,0,0,.19,1.73,6.52,6.52,0,0,0,6.34,4.95c4.46,0,7.05-3.65,7.05-9,0-4.66-2.45-8.64-6.91-8.64a6.73,6.73,0,0,0-6.38,5.23,6.59,6.59,0,0,0-.29,1.73Z" transform="translate(2 26)"/><path class="cls-3" d="M1283.79,21s-25.23,18.26-38.18,57.78c0,0-120.54,90.65-69.73,257s215.17,158.39,215.17,158.39,38.35-86.16,4.48-168.35c0,0-39.37,61.27,5,128.51,0,0-89.15-68.24-31.37-172.34,0,0-25.9-32.37-53.79-59.77S1224.76,110.05,1283.79,21Z" transform="translate(2 26)"/><path class="cls-4" d="M1281.14,54.54s182-106.26,313.45,67.73S1561,497.7,1431,494.23c0,0-25.24,32.07-54.13,44.77,0,0,116.14-129.83,59.69-244.72S1270.84,163.78,1281.14,54.54Zm123.11,131.32a39.6,39.6,0,1,0-39.6-39.59A39.6,39.6,0,0,0,1404.25,185.86Zm64.5-146.93s56.11,60.1,11.62,115.89-70.87,78.36-70.87,78.36,18.41,26.23,24,38.52c0,0,95-89.32,95-143.12S1468.75,38.93,1468.75,38.93Z" transform="translate(2 26)"/></svg>